:SAMPLES-PER-SECOND 30
:FULLY-SPECIFIED
:DEGREES
647
root  26.0448 38.0691 7.07724 -123.925 -81.6277 115.561
RightUpLeg  -11.8934 7.38881 -11.0637
RightLeg  67.7833 3.01613 7.4642
RightFoot  4.40465 -1.28081 9.44749
RightToes  -4.65661e-009 0 -3.6325e-017
Spine  6.86356 0.835066 -4.94016
Spine1  7.82113 1.10068 -5.95606
HEad  -6.90911 -2.83352 -5.36289
LeftShoulder1  -0.400369 4.55929 -31.8011
LeftArm  4.05068 2.41664 -43.805
LeftForeArm  27.4573 -15.6454 -6.86613
LeftHand  -0.0159918 7.80098 1.16278
RightShoulder  -0.854359 -5.88356 29.2966
RightArm  18.3081 -5.7697 48.1477
RightForeArm  22.6278 9.64995 7.99735
RightHand  0.028638 1.99877 0.273677
LeftUpLeg  -7.32745 5.50957 -11.4373
LeftLeg  23.6046 7.60201 3.62652
LeftFoot  -8.64218 -0.147835 8.489
LeftToes  9.86798e-010 -1.28139e-010 1.4132e-011
648
root  24.8429 38.3013 7.14475 -125.042 -82.3361 116.657
RightUpLeg  -15.5437 7.97542 -10.1232
RightLeg  64.8035 2.64846 5.56424
RightFoot  3.08476 -0.91648 7.39631
RightToes  -4.65661e-009 0 -3.6325e-017
Spine  6.88856 0.547268 -5.41654
Spine1  7.56077 0.502389 -4.51215
HEad  -7.47159 -5.32243 -4.33754
LeftShoulder1  -0.454713 4.70183 -31.819
LeftArm  6.14269 -0.0671401 -44.2965
LeftForeArm  25.3907 -17.1277 -6.21252
LeftHand  -0.0288163 6.79436 0.697584
RightShoulder  -0.818403 -5.80834 28.8981
RightArm  19.9635 -7.83936 47.1271
RightForeArm  20.1035 12.1977 7.27982
RightHand  0.0948162 2.48874 1.21571
LeftUpLeg  -4.33527 5.49579 -10.5496
LeftLeg  22.0113 7.32751 2.87892
LeftFoot  -9.8288 -0.0524008 8.44131
LeftToes  9.86798e-010 -1.28139e-010 1.4132e-011
649
root  23.6364 38.4639 7.21526 -126.371 -83.0538 117.718
RightUpLeg  -17.779 8.27414 -9.24685
RightLeg  58.6517 2.76041 4.43502
RightFoot  0.974609 -0.734943 6.87959
RightToes  -4.65661e-009 0 -3.6325e-017
Spine  6.93117 0.262996 -5.55858
Spine1  7.62141 0.0571456 -3.58724
HEad  -6.20157 -6.50162 -3.75993
LeftShoulder1  -0.488934 4.80013 -31.5704
LeftArm  9.12374 -1.97345 -44.8648
LeftForeArm  21.9221 -19.6565 -5.06439
LeftHand  -0.0218592 6.33694 1.27773
RightShoulder  -0.806304 -5.78851 28.6736
RightArm  20.7392 -8.85582 46.4905
RightForeArm  18.4204 13.3563 6.89197
RightHand  0.0366305 3.0916 0.262105
LeftUpLeg  -1.0781 5.50882 -9.67643
LeftLeg  20.3997 7.1886 2.23855
LeftFoot  -11.122 0.0510079 8.55168
LeftToes  9.86798e-010 -1.28139e-010 1.4132e-011
650
root  22.4496 38.562 7.28925 -124.272 -83.9042 115.783
RightUpLeg  -19.171 7.66944 -8.51822
RightLeg  49.4946 3.11334 3.55342
RightFoot  -0.692941 -0.689771 7.34888
RightToes  -4.65661e-009 0 -3.6325e-017
Spine  6.66879 -0.144868 -5.47983
Spine1  7.51422 -0.385587 -2.80426
HEad  -5.33221 -8.89237 -3.13987
LeftShoulder1  -0.439442 4.68256 -31.1336
LeftArm  10.5112 -3.29322 -45.3324
LeftForeArm  20.1434 -22.1833 -4.14293
LeftHand  -0.0273046 5.88754 0.98409
RightShoulder  -0.815484 -5.8238 28.5368
RightArm  20.3676 -9.24151 46.1256
RightForeArm  18.3034 13.1407 6.90371
RightHand  0.0258396 2.82789 0.144775
LeftUpLeg  1.53265 5.8064 -8.91244
LeftLeg  18.9408 6.69296 1.66853
LeftFoot  -12.3764 0.154942 8.88415
LeftToes  9.86798e-010 -1.28139e-010 1.4132e-011
651
root  21.2458 38.6101 7.35593 -117.53 -84.6777 109.18
RightUpLeg  -19.1501 6.14181 -7.97054
RightLeg  37.8116 3.28252 2.51335
RightFoot  -1.78604 -0.665433 7.79426
RightToes  -4.65661e-009 0 -3.6325e-017
Spine  6.40947 -0.700512 -5.51114
Spine1  7.41949 -0.943397 -2.19527
HEad  -4.57936 -11.378 -2.25017
LeftShoulder1  -0.418039 4.63864 -30.6935
LeftArm  9.96133 -4.44284 -45.545
LeftForeArm  20.1122 -24.4272 -4.11793
LeftHand  -0.0232679 5.76601 1.84292
RightShoulder  -0.788704 -5.75232 28.4489
RightArm  18.7434 -8.98739 46.1018
RightForeArm  19.9689 11.8114 7.1256
RightHand  0.0778069 3.33179 0.813357
LeftUpLeg  4.00209 5.61724 -8.59985
LeftLeg  17.8042 6.17457 1.51596
LeftFoot  -13.3987 0.242855 9.01998
LeftToes  9.86798e-010 -1.28139e-010 1.4132e-011
652
root  19.9901 38.6086 7.41249 -116.482 -84.7815 108.444
RightUpLeg  -18.4522 4.75717 -7.39656
RightLeg  24.7104 2.69293 1.17207
RightFoot  -2.15707 -0.606375 7.35603
RightToes  -4.65661e-009 0 -3.6325e-017
Spine  6.17062 -0.72367 -5.4293
Spine1  6.89081 -0.907316 -1.63268
HEad  -3.43234 -13.4095 -1.93573
LeftShoulder1  -0.443383 4.70378 -30.7918
LeftArm  9.00553 -5.19482 -45.3898
LeftForeArm  20.8264 -26.358 -4.54616
LeftHand  -0.0201257 5.86504 2.099
RightShoulder  -0.768554 -5.7082 28.2291
RightArm  17.3151 -8.78849 46.0676
RightForeArm  21.0017 10.1018 7.43611
RightHand  -0.00180875 3.8572 -0.304706
LeftUpLeg  6.60495 5.85987 -8.30685
LeftLeg  16.1926 5.67959 0.994127
LeftFoot  -14.4848 0.331187 8.87457
LeftToes  9.86798e-010 -1.28139e-010 1.4132e-011
653
root  18.6933 38.5511 7.45812 -113.953 -84.7314 106.535
RightUpLeg  -17.5632 0.640258 -6.20635
RightLeg  11.5907 4.16488 0.430065
RightFoot  -2.75097 -0.599285 7.71668
RightToes  -4.65661e-009 0 -3.6325e-017
Spine  4.74595 -0.745553 -5.02425
Spine1  7.48672 -0.701688 -1.65675
HEad  -1.7933 -15.6319 -1.60709
LeftShoulder1  -0.372234 4.5288 -30.1802
LeftArm  8.61046 -5.94141 -45.983
LeftForeArm  20.8792 -27.2498 -4.74178
LeftHand  -0.00716754 6.21063 3.17694
RightShoulder  -0.803041 -5.80096 28.3372
RightArm  15.5405 -8.11598 46.2901
RightForeArm  22.8738 8.2247 7.47477
RightHand  -0.0252128 3.08771 -0.55974
LeftUpLeg  8.95789 5.91059 -8.28613
LeftLeg  14.5753 5.31621 0.571942
LeftFoot  -15.6032 0.415976 8.63259
LeftToes  9.86798e-010 -1.28139e-010 1.4132e-011
654
root  17.3397 38.4548 7.47689 -111.227 -84.8134 104.304
RightUpLeg  -16.6726 -6.06984 -3.91972
RightLeg  0.821664 8.04618 -0.085849
RightFoot  -3.59006 -0.635027 9.03591
RightToes  -4.65661e-009 0 -3.6325e-017
Spine  3.52791 -0.716047 -4.53095
Spine1  7.86164 -0.583423 -1.39206
HEad  -0.437046 -17.2208 -1.40432
LeftShoulder1  -0.358633 4.49022 -30.2161
LeftArm  8.55269 -6.22781 -45.9924
LeftForeArm  21.3602 -27.7111 -4.81919
LeftHand  -0.0185665 5.79219 2.71582
RightShoulder  -0.768716 -5.71626 28.1093
RightArm  14.4588 -7.82883 46.4211
RightForeArm  24.6568 7.06236 7.26896
RightHand  0.0564426 2.64786 0.597103
LeftUpLeg  11.595 6.09591 -8.00005
LeftLeg  12.8824 4.73059 0.161149
LeftFoot  -16.8156 0.499414 8.31205
LeftToes  9.86798e-010 -1.28139e-010 1.4132e-011
655
root  15.9456 38.2387 7.44184 -106.475 -84.9403 99.6478
RightUpLeg  -16.2234 -6.1458 -3.63184
RightLeg  -3.99083 3.29341 0.481123
RightFoot  -4.65501 -0.594084 9.57984
RightToes  -4.65661e-009 0 -3.6325e-017
Spine  3.24398 -0.738676 -4.12855
Spine1  7.79173 -0.559615 -1.33006
HEad  0.388596 -18.5706 -1.04902
LeftShoulder1  -0.417782 4.64776 -30.3653
LeftArm  8.97462 -6.41333 -45.8387
LeftForeArm  20.8699 -27.5503 -4.80981
LeftHand  -0.00563923 6.36143 2.89406
RightShoulder  -0.823144 -5.86334 28.2776
RightArm  13.8871 -7.25744 46.0627
RightForeArm  24.4785 6.79221 7.04208
RightHand  0.0285758 2.2339 0.266199
LeftUpLeg  14.1175 6.47754 -7.55861
LeftLeg  12.5332 3.70921 0.0444854
LeftFoot  -18.5905 0.594893 7.62637
LeftToes  9.86798e-010 -1.28139e-010 1.4132e-011
656
root  14.5483 37.9951 7.37076 -106.721 -85.1168 99.7936
RightUpLeg  -17.5312 -5.86754 -2.87224
RightLeg  0.256701 -1.74212 0.939932
RightFoot  -3.7965 -0.417735 5.83118
RightToes  -4.65661e-009 0 -3.6325e-017
Spine  3.27619 -0.643437 -3.73478
Spine1  8.00344 -0.570697 -0.913505
HEad  0.600073 -19.1067 -1.05674
LeftShoulder1  -0.451959 4.72978 -30.7181
LeftArm  9.19338 -6.04096 -45.6742
LeftForeArm  21.207 -26.9536 -4.65821
LeftHand  -0.0238498 5.55218 2.3596
RightShoulder  -0.81407 -5.84255 28.193
RightArm  13.4685 -6.31349 45.8829
RightForeArm  22.9614 6.77586 6.91664
RightHand  -0.0221658 2.78548 -0.535883
LeftUpLeg  16.4923 6.97065 -6.86372
LeftLeg  12.9554 2.78536 0.143723
LeftFoot  -20.2077 0.600989 6.19011
LeftToes  9.86798e-010 -1.28139e-010 1.4132e-011
657
root  13.0568 37.7881 7.31263 -102.433 -85.8061 95.422
RightUpLeg  -18.9081 -6.60026 -1.67731
RightLeg  6.9318 -4.38476 0.950043
RightFoot  -0.572818 -0.190829 2.46913
RightToes  -4.65661e-009 0 -3.6325e-017
Spine  2.98971 -0.853952 -2.32495
Spine1  8.53621 -0.78171 -0.9108
HEad  -0.333134 -19.173 -0.638766
LeftShoulder1  -0.405661 4.60801 -30.5911
LeftArm  9.79941 -4.84003 -45.7441
LeftForeArm  19.9323 -25.5752 -4.40626
LeftHand  -0.0112132 6.15628 2.90437
RightShoulder  -0.841039 -5.91052 28.3399
RightArm  13.3755 -5.11871 45.4604
RightForeArm  22.1092 7.08309 6.85004
RightHand  -0.0106501 2.64146 -0.365595
LeftUpLeg  18.6584 7.6487 -5.30923
LeftLeg  14.1316 0.824738 0.00217205
LeftFoot  -21.3519 0.516103 4.40467
LeftToes  9.86798e-010 -1.28139e-010 1.4132e-011
658
root  11.4922 37.7428 7.21007 -91.6512 -87.5002 84.555
RightUpLeg  -20.0819 -7.51791 0.650968
RightLeg  12.5594 -3.50062 0.277402
RightFoot  4.22484 0.492777 -3.57785
RightToes  -4.65661e-009 0 -3.6325e-017
Spine  2.66983 -1.12778 -0.22083
Spine1  8.80636 -1.31241 0.233854
HEad  -1.56334 -19.4117 -0.036352
LeftShoulder1  -0.444637 4.69266 -31.2606
LeftArm  12.0592 -3.07413 -45.2772
LeftForeArm  18.3914 -23.4432 -4.15604
LeftHand  -0.0130175 5.74321 3.25476
RightShoulder  -0.807586 -5.84981 27.8089
RightArm  12.9381 -5.12042 45.1141
RightForeArm  21.4255 8.22188 6.57561
RightHand  -0.0254368 2.45702 -0.58342
LeftUpLeg  20.6739 7.17725 -2.87931
LeftLeg  15.4813 -0.654241 0.0887975
LeftFoot  -21.104 0.27092 1.71954
LeftToes  9.86798e-010 -1.28139e-010 1.4132e-011
659
root  9.84492 37.6119 7.09368 -69.7006 -89.2465 62.4324
RightUpLeg  -20.9908 -7.53768 2.9272
RightLeg  19.1658 -1.78793 -0.849041
RightFoot  4.31695 0.600177 -4.16132
RightToes  -4.65661e-009 0 -3.6325e-017
Spine  2.19687 -1.03111 2.6723
Spine1  8.89604 -0.968571 -0.0729412
HEad  -1.08737 -19.5479 -0.360594
LeftShoulder1  -0.46055 4.7184 -31.7786
LeftArm  13.2953 -0.893241 -44.9426
LeftForeArm  18.0396 -20.8522 -4.76812
LeftHand  0.040999 7.38644 4.52169
RightShoulder  -0.84448 -5.93237 28.1744
RightArm  12.8345 -4.52375 44.0925
RightForeArm  20.1919 8.76498 6.42118
RightHand  -0.0180342 3.23355 -0.476671
LeftUpLeg  21.3292 6.80007 -0.304574
LeftLeg  20.0049 -2.13192 -0.531259
LeftFoot  -20.3762 -0.0775086 -2.52394
LeftToes  9.86798e-010 -1.28139e-010 1.4132e-011
